<?xml version="1.0" encoding="UTF-8" standalone="no"?>
<svg
  version="1.1"
  id="Calque_1"
  x="0px"
  y="0px"
  width="553.44727"
  height="154.48047"
  viewBox="0 0 553.44726 154.48046"
  xml:space="preserve"
  xmlns="http://www.w3.org/2000/svg">
  <g transform="translate(-98.718703,-180.49098)">
     <text x="256.3136" y="291.69107"
           style="font-style:normal;font-weight:bold;font-size:102.738px;font-family:sans-serif;">
       <tspan x="275" y="291"
              style="font-family:sans-serif;font-weight:500;font-size:102.73799896px">Dossier</tspan></text>
    <g transform="matrix(4.6812159,0,0,4.6812159,-205.10507,-844.0031)">
      <path
        d="m 77.958984,0.125 c -42.658052,0 -77.23828088,34.582191 -77.23828088,77.240234 0,42.658046 34.58022888,77.240236 77.23828088,77.240236 42.659706,0 77.240236,-34.58219 77.240236,-77.240236 C 155.19922,34.707191 120.61869,0.125 77.958984,0.125 Z m -9.888672,37.125 0.09375,0.0098 51.339848,4.642578 1.11523,18.425781 c -0.20973,0.066 -0.79687,0.265625 -0.79687,0.265625 -8.65019,2.744644 -16.05624,6.336323 -22.244145,10.080078 l -0.0098,0.0059 C 84.406474,78.646177 76.788673,87.296714 74.626953,89.947266 l -1.96875,-15.617188 0.002,-0.002 -0.214844,-1.724609 -3.287109,-26.558594 h 0.002 z m -21.402343,8.710938 21.402343,0.365234 3.28711,26.558594 c -2.488703,1.80503 -4.892476,3.720523 -7.201172,5.740234 -1.74226,1.438397 -4.321199,3.810976 -5.726562,5.224609 -2.480446,2.478798 -5.092926,5.525391 -5.119141,5.525391 -0.0099,0 -0.08391,-0.03246 -0.158203,-0.06055 z M 46.4375,52.310547 49.625,73.712891 c -1.312884,1.002388 -2.592109,2.048115 -3.833984,3.134765 -1.294722,1.070126 -3.211854,2.834174 -4.253907,3.882813 -1.844642,1.844633 -3.788384,4.107422 -3.80664,4.107422 -0.0083,0 -0.0759,-0.02465 -0.138672,-0.05273 L 32.794922,52.576172 Z m 74.55469,10.070312 v 0.966797 l 2.13086,34.220703 -43.968753,29.273441 -0.03516,-0.2793 -2.751953,-22.44141 -0.263672,-2.13476 -0.02344,0.01 -1.134766,-9.468746 c 0.559832,-0.721656 8.844556,-11.205249 22.800782,-20.015625 6.566082,-4.145076 14.384522,-7.917955 23.246092,-10.13086 z m -49.421878,12.230469 3.421876,27.666012 -0.0039,0.002 -18.662109,8.23437 -0.949219,-6.35742 -1.083984,-7.28125 -0.675781,-4.53125 0.464843,-1.287109 c 0,0 5.335415,-7.803367 17.488281,-16.445313 z m -21.613281,1.324219 2.06836,13.701172 c -0.0047,-0.0014 -0.0085,-0.0042 -0.01367,-0.0059 l 1.142578,7.56836 -12.615235,4.011721 -2.009765,-13.501956 0.341797,-0.957031 c 0,0 3.405139,-4.978602 11.085937,-10.816406 z"
        transform="matrix(0.21361971,0,0,0.21361971,64.748791,218.82543)"/>
    </g>
  </g>
</svg>
