<?xml version="1.0" encoding="UTF-8" standalone="no"?><!DOCTYPE svg PUBLIC "-//W3C//DTD SVG 1.1//EN" "http://www.w3.org/Graphics/SVG/1.1/DTD/svg11.dtd"><svg width="100%" height="100%" viewBox="0 0 433 433" version="1.1" xmlns="http://www.w3.org/2000/svg" xmlns:xlink="http://www.w3.org/1999/xlink" xml:space="preserve" xmlns:serif="http://www.serif.com/" style="fill-rule:evenodd;clip-rule:evenodd;stroke-linejoin:round;stroke-miterlimit:2;"><g><circle cx="216.139" cy="216.306" r="33.484" style="fill:#d3d013;"/></g><g><circle cx="316.591" cy="216.306" r="33.484" style="fill:#d3d013;"/></g><g><circle cx="115.687" cy="216.306" r="33.484" style="fill:#d3d013;"/></g><g><path d="M216.139,0c-119.186,0 -216.139,96.953 -216.139,216.139c0,119.186 96.953,216.139 216.139,216.139c119.186,0 216.139,-96.969 216.139,-216.139c0,-119.169 -96.953,-216.139 -216.139,-216.139Zm0,398.794c-100.703,0 -182.655,-81.935 -182.655,-182.655c-0,-100.72 81.952,-182.655 182.655,-182.655c100.72,-0 182.655,81.935 182.655,182.655c0,100.72 -81.952,182.655 -182.655,182.655Z" style="fill:#d3d013;fill-rule:nonzero;"/></g></svg>