<?xml version="1.0" encoding="UTF-8" standalone="no"?>
<svg
   xmlns:dc="http://purl.org/dc/elements/1.1/"
   xmlns:cc="http://creativecommons.org/ns#"
   xmlns:rdf="http://www.w3.org/1999/02/22-rdf-syntax-ns#"
   xmlns:svg="http://www.w3.org/2000/svg"
   xmlns="http://www.w3.org/2000/svg"
   viewBox="0 0 1183.1027 564.172"
   height="564.172"
   width="1183.1027"
   xml:space="preserve"
   id="svg2"
   version="1.1"><metadata
     id="metadata8"><rdf:RDF><cc:Work
         rdf:about=""><dc:format>image/svg+xml</dc:format><dc:type
           rdf:resource="http://purl.org/dc/dcmitype/StillImage" /></cc:Work></rdf:RDF></metadata><defs
     id="defs6"><clipPath
       id="clipPath34"
       clipPathUnits="userSpaceOnUse"><path
         id="path32"
         d="M 0,423.129 H 887.327 V 0 H 0 Z" /></clipPath></defs><g
     transform="matrix(1.3333333,0,0,-1.3333333,0,564.172)"
     id="g10"><g
       transform="translate(153.0669,330.6147)"
       id="g12"><path
         id="path14"
         style="fill:#763aa0;fill-opacity:1;fill-rule:nonzero;stroke:none"
         d="m 0,0 v 26.938 h -113.916 v -87.039 h 25.223 V 0 Z" /></g><g
       transform="translate(265.3872,270.5137)"
       id="g16"><path
         id="path18"
         style="fill:#4bace5;fill-opacity:1;fill-rule:nonzero;stroke:none"
         d="M 0,0 H 25.217 V 87.04 H -88.693 V 60.101 l 88.693,0 z" /></g><g
       transform="translate(64.3735,193.1426)"
       id="g20"><path
         id="path22"
         style="fill:#c0d41f;fill-opacity:1;fill-rule:nonzero;stroke:none"
         d="M 0,0 H -25.222 V -87.049 H 88.693 v 26.94 l -88.693,0 z" /></g><g
       transform="translate(176.6938,133.0332)"
       id="g24"><path
         id="path26"
         style="fill:#e0581d;fill-opacity:1;fill-rule:nonzero;stroke:none"
         d="M 0,0 V -26.939 H 113.91 V 60.109 H 88.693 V 0 Z" /></g><g
       id="g28"><g
         clip-path="url(#clipPath34)"
         id="g30"><g
           transform="translate(13.271,314.3164)"
           id="g36"><path
             id="path38"
             style="fill:#393536;fill-opacity:1;fill-rule:nonzero;stroke:none"
             d="m 0,0 c 83.499,-10.355 192.77,-44.803 205.104,-64.662 1.083,-1.715 1.367,-3.301 0.887,-4.695 -7.684,-22.111 -129.34,-53.542 -130.561,-53.866 l -0.786,-0.201 56.333,-39.538 c 0,0 151.684,44.252 153.597,79.703 0.329,5.972 -2.777,11.51 -10.411,16.539 C 182.458,-6.111 1.874,0.689 0.059,0.748 Z" /></g><g
           transform="translate(50.7251,181.6357)"
           id="g40"><path
             id="path42"
             style="fill:#393536;fill-opacity:1;fill-rule:nonzero;stroke:none"
             d="m 0,0 59.046,-42.003 28.025,9.67 L 30.57,7.258 Z" /></g><g
           transform="translate(404.5063,227.3242)"
           id="g44"><path
             id="path46"
             style="fill:#393536;fill-opacity:1;fill-rule:nonzero;stroke:none"
             d="m 0,0 c 0,8.59 -0.642,15.385 -1.93,20.376 -1.288,4.989 -3.156,8.754 -5.593,11.294 -2.443,2.544 -5.348,4.161 -8.705,4.853 -3.363,0.695 -7.11,1.043 -11.253,1.043 h -22.524 v -75.135 h 21.414 c 4.422,0 8.399,0.39 11.95,1.176 3.541,0.785 6.541,2.469 8.973,5.057 2.442,2.59 4.333,6.38 5.671,11.373 C -0.664,-14.978 0,-8.319 0,0 m 12.435,0 c 0,-10.687 -1.081,-19.201 -3.246,-25.553 -2.168,-6.354 -5.18,-11.213 -9.05,-14.576 -3.865,-3.359 -8.449,-5.57 -13.741,-6.63 -5.297,-1.059 -11.03,-1.587 -17.192,-1.587 h -31.645 v 96.684 h 33.023 c 6.167,0 11.805,-0.507 16.919,-1.52 C -7.39,45.806 -2.989,43.62 0.691,40.259 4.383,36.897 7.255,32.039 9.329,25.687 11.397,19.333 12.435,10.771 12.435,0" /></g><path
           id="path48"
           style="fill:#393536;fill-opacity:1;fill-rule:nonzero;stroke:none"
           d="m 440.418,252.181 h 12.436 v -73.202 h -12.436 z m 14.365,19.338 c 0,-2.301 -0.781,-4.261 -2.342,-5.869 -1.572,-1.614 -3.502,-2.42 -5.805,-2.42 -2.303,0 -4.238,0.806 -5.8,2.42 -1.572,1.608 -2.353,3.568 -2.353,5.869 0,2.301 0.781,4.258 2.353,5.869 1.562,1.611 3.497,2.42 5.8,2.42 2.303,0 4.233,-0.809 5.805,-2.42 1.561,-1.611 2.342,-3.568 2.342,-5.869" /><g
           transform="translate(514.7241,228.9775)"
           id="g50"><path
             id="path52"
             style="fill:#393536;fill-opacity:1;fill-rule:nonzero;stroke:none"
             d="m 0,0 c 0,4.974 -1.126,8.886 -3.379,11.741 -2.259,2.855 -5.688,4.282 -10.289,4.282 -4.974,0 -8.498,-1.335 -10.572,-4.006 C -26.31,9.346 -27.347,5.345 -27.347,0 c 0,-4.88 1.126,-8.793 3.385,-11.74 2.253,-2.948 5.683,-4.419 10.294,-4.419 4.785,0 8.259,1.471 10.423,4.419 C -1.076,-8.793 0,-4.88 0,0 m 6.212,-55.246 c 0,3.404 -0.853,5.663 -2.56,6.767 -1.712,1.104 -4.594,1.748 -8.665,1.932 l -18.848,1.107 c -0.558,0 -1.116,0.019 -1.667,0.067 -0.559,0.048 -1.066,0.117 -1.529,0.206 -1.014,-1.564 -1.896,-3.128 -2.631,-4.692 -0.743,-1.565 -1.111,-3.408 -1.111,-5.524 0,-3.959 1.199,-7.208 3.603,-9.74 2.409,-2.532 6.329,-3.798 11.783,-3.798 7.946,0 13.539,1.196 16.773,3.588 3.235,2.396 4.852,5.76 4.852,10.087 m 0.419,68.922 c 1.561,-2.022 2.827,-4.088 3.797,-6.196 0.97,-2.11 1.456,-4.633 1.456,-7.567 0,-8.162 -2.304,-14.316 -6.909,-18.445 -4.607,-4.127 -10.819,-6.193 -18.643,-6.193 -3.87,0 -7.511,0.647 -10.913,1.935 -1.294,-1.38 -2.336,-2.624 -3.111,-3.728 -0.787,-1.107 -1.171,-2.211 -1.171,-3.312 0,-2.119 0.574,-3.455 1.722,-4.01 1.155,-0.552 3.341,-0.92 6.558,-1.101 l 16.997,-0.83 c 3.402,-0.189 6.441,-0.602 9.118,-1.243 2.66,-0.647 4.924,-1.684 6.764,-3.112 1.841,-1.428 3.224,-3.265 4.143,-5.52 0.92,-2.259 1.378,-5.088 1.378,-8.496 0,-4.511 -0.803,-8.29 -2.415,-11.325 -1.611,-3.042 -3.87,-5.459 -6.769,-7.252 -2.895,-1.798 -6.397,-3.064 -10.489,-3.802 -4.105,-0.734 -8.594,-1.102 -13.473,-1.102 -3.87,0 -7.44,0.368 -10.701,1.102 -3.274,0.738 -6.079,1.915 -8.432,3.527 -2.343,1.608 -4.16,3.636 -5.448,6.075 -1.294,2.44 -1.936,5.363 -1.936,8.771 0,2.854 0.77,5.71 2.315,8.565 1.55,2.852 3.502,5.063 5.872,6.63 -1.991,1.193 -3.397,2.669 -4.205,4.42 -0.82,1.748 -1.227,3.681 -1.227,5.804 0,2.665 0.887,5.104 2.644,7.315 1.767,2.209 3.658,4.235 5.687,6.076 -2.66,2.122 -4.761,4.65 -6.296,7.598 -1.539,2.947 -2.302,6.86 -2.302,11.74 0,8.565 2.325,14.803 6.976,18.717 4.645,3.911 10.879,5.868 18.714,5.868 1.378,0 2.571,-0.067 3.586,-0.206 1.015,-0.14 2.002,-0.3 2.973,-0.485 0.969,-0.182 1.979,-0.345 3.039,-0.485 1.053,-0.137 2.319,-0.206 3.797,-0.206 h 19.612 v -9.527 z" /></g><path
           id="path54"
           style="fill:#393536;fill-opacity:1;fill-rule:nonzero;stroke:none"
           d="m 550.631,252.181 h 12.436 v -73.202 h -12.436 z m 14.37,19.338 c 0,-2.301 -0.78,-4.261 -2.353,-5.869 -1.562,-1.614 -3.502,-2.42 -5.794,-2.42 -2.303,0 -4.238,0.806 -5.805,2.42 -1.567,1.608 -2.347,3.568 -2.347,5.869 0,2.301 0.78,4.258 2.347,5.869 1.567,1.611 3.502,2.42 5.805,2.42 2.292,0 4.232,-0.809 5.794,-2.42 1.573,-1.611 2.353,-3.568 2.353,-5.869" /><g
           transform="translate(623.8384,180.0801)"
           id="g56"><path
             id="path58"
             style="fill:#393536;fill-opacity:1;fill-rule:nonzero;stroke:none"
             d="m 0,0 c -1.662,-0.552 -3.195,-0.962 -4.628,-1.24 -1.428,-0.277 -3.061,-0.55 -4.896,-0.828 -1.852,-0.274 -3.731,-0.413 -5.671,-0.413 -2.672,0 -5.02,0.278 -7.043,0.831 -2.025,0.548 -3.748,1.536 -5.181,2.966 -1.428,1.428 -2.51,3.315 -3.246,5.661 -0.735,2.352 -1.104,5.319 -1.104,8.912 v 46.684 h -12.43 v 9.528 h 12.43 l 0.552,16.577 11.878,5.523 v -22.1 H -2.76 L -4.144,62.573 H -19.339 V 15.474 c 0,-3.228 0.558,-5.275 1.662,-6.145 1.099,-0.881 2.849,-1.315 5.247,-1.315 1.472,0 3.223,0.209 5.247,0.624 2.025,0.413 3.681,0.803 4.975,1.176 1.288,0.363 2.019,0.594 2.208,0.689 z" /></g><g
           transform="translate(675.0806,220.2793)"
           id="g60"><path
             id="path62"
             style="fill:#393536;fill-opacity:1;fill-rule:nonzero;stroke:none"
             d="m 0,0 c 0,5.123 -0.374,9.241 -1.104,12.356 -0.742,3.109 -1.751,5.512 -3.045,7.21 -1.288,1.693 -2.777,2.817 -4.484,3.363 -1.706,0.55 -3.479,0.825 -5.319,0.825 -2.208,0 -4.233,-0.32 -6.073,-0.962 -1.846,-0.641 -3.412,-1.851 -4.702,-3.639 -1.282,-1.787 -2.325,-4.21 -3.099,-7.276 C -28.613,8.81 -29.054,4.851 -29.143,0 Z m 12.296,-8.565 h -41.439 c 0.089,-5.928 0.809,-10.467 2.136,-13.616 1.333,-3.15 2.945,-5.443 4.829,-6.88 1.885,-1.435 3.887,-2.272 6,-2.501 2.115,-0.228 4.049,-0.348 5.8,-0.348 1.745,0 3.726,0.192 5.928,0.577 2.203,0.38 4.277,0.814 6.207,1.291 1.934,0.478 4.187,1.096 6.759,1.863 v -11.05 c -2.209,-0.739 -4.195,-1.31 -5.946,-1.726 -1.756,-0.415 -3.786,-0.806 -6.094,-1.174 -2.298,-0.368 -4.607,-0.552 -6.915,-0.552 -3.597,0 -7.239,0.324 -10.924,0.965 -3.698,0.647 -7.038,2.259 -10.038,4.835 -3.005,2.576 -5.449,6.396 -7.338,11.466 -1.891,5.063 -2.839,11.971 -2.839,20.717 0,7.736 0.792,14.04 2.359,18.923 1.567,4.879 3.647,8.746 6.229,11.604 2.587,2.852 5.537,4.807 8.861,5.866 3.329,1.061 6.741,1.588 10.249,1.588 3.234,0 6.463,-0.462 9.693,-1.382 3.233,-0.92 6.138,-2.741 8.72,-5.454 2.594,-2.715 4.613,-6.56 6.096,-11.534 1.472,-4.969 2.074,-11.51 1.801,-19.611 z" /></g><g
           transform="translate(750.9038,180.3594)"
           id="g64"><path
             id="path66"
             style="fill:#393536;fill-opacity:1;fill-rule:nonzero;stroke:none"
             d="m 0,0 c -0.179,-0.09 -0.893,-0.346 -2.136,-0.759 -1.244,-0.415 -3.061,-0.853 -5.454,-1.31 -2.398,-0.463 -4.79,-0.692 -7.188,-0.692 -2.945,0 -6.19,0.346 -9.731,1.034 -3.553,0.692 -6.887,2.301 -10.015,4.832 -3.128,2.533 -5.755,6.291 -7.874,11.261 -2.124,4.974 -3.179,11.785 -3.179,20.441 0,8.656 1.127,15.54 3.386,20.65 2.253,5.111 5.018,8.976 8.286,11.603 3.267,2.62 6.697,4.301 10.289,5.041 3.591,0.731 6.769,1.102 9.535,1.102 2.481,0 4.857,-0.231 7.11,-0.697 2.253,-0.467 3.937,-0.887 5.046,-1.26 1.099,-0.375 1.746,-0.608 1.925,-0.7 L 0,59.807 c -0.179,0.089 -0.87,0.321 -2.063,0.689 -1.2,0.37 -2.883,0.783 -5.047,1.246 -2.164,0.457 -4.35,0.689 -6.558,0.689 -2.214,0 -4.489,-0.251 -6.837,-0.756 -2.348,-0.507 -4.444,-1.679 -6.285,-3.513 -1.846,-1.838 -3.368,-4.617 -4.562,-8.337 -1.198,-3.722 -1.794,-8.748 -1.794,-15.083 0,-5.791 0.557,-10.428 1.661,-13.919 1.104,-3.488 2.526,-6.178 4.277,-8.061 1.751,-1.883 3.73,-3.096 5.944,-3.645 2.208,-0.552 4.372,-0.831 6.486,-0.831 2.119,0 4.378,0.254 6.77,0.764 2.392,0.502 4.282,0.965 5.665,1.378 1.378,0.412 2.164,0.669 2.343,0.758 z" /></g><g
           transform="translate(811.6812,178.9785)"
           id="g68"><path
             id="path70"
             style="fill:#393536;fill-opacity:1;fill-rule:nonzero;stroke:none"
             d="m 0,0 v 53.178 c 0,2.297 -0.302,4.142 -0.897,5.525 -0.603,1.381 -1.434,2.393 -2.488,3.037 -1.059,0.644 -2.303,1.057 -3.725,1.246 -1.428,0.181 -2.972,0.274 -4.634,0.274 -2.398,0 -4.763,-0.394 -7.11,-1.174 -2.348,-0.784 -4.495,-1.637 -6.424,-2.555 -1.935,-0.926 -4.099,-2.166 -6.492,-3.727 V 0 H -44.199 V 99.445 H -31.77 V 64.366 c 2.488,2.113 4.786,3.818 6.91,5.109 2.114,1.288 4.579,2.462 7.389,3.521 2.799,1.061 5.777,1.588 8.906,1.588 3.039,0 5.843,-0.346 8.425,-1.036 2.582,-0.692 4.786,-1.865 6.631,-3.519 1.834,-1.659 3.29,-3.895 4.35,-6.7 1.059,-2.808 1.595,-6.332 1.595,-10.567 L 12.436,0 Z" /></g><g
           transform="translate(870.5181,187.6807)"
           id="g72"><path
             id="path74"
             style="fill:#393536;fill-opacity:1;fill-rule:nonzero;stroke:none"
             d="m 0,0 c 0,-2.763 -0.92,-5.136 -2.761,-7.115 -1.84,-1.977 -4.142,-2.967 -6.909,-2.967 -2.76,0 -5.085,0.99 -6.976,2.967 -1.884,1.979 -2.833,4.352 -2.833,7.115 0,2.764 0.949,5.108 2.833,7.045 1.891,1.932 4.216,2.902 6.976,2.902 2.767,0 5.069,-0.97 6.909,-2.902 C -0.92,5.108 0,2.764 0,0" /></g></g></g></g></svg>