<?xml version="1.0" encoding="UTF-8" standalone="no"?><!DOCTYPE svg PUBLIC "-//W3C//DTD SVG 1.1//EN" "http://www.w3.org/Graphics/SVG/1.1/DTD/svg11.dtd"><svg width="100%" height="100%" viewBox="0 0 238 238" version="1.1" xmlns="http://www.w3.org/2000/svg" xmlns:xlink="http://www.w3.org/1999/xlink" xml:space="preserve" xmlns:serif="http://www.serif.com/" style="fill-rule:evenodd;clip-rule:evenodd;stroke-linejoin:round;stroke-miterlimit:2;"><path d="M229.775,216.196l-56.492,-58.754c14.525,-17.267 22.484,-38.992 22.484,-61.609c-0,-52.841 -42.992,-95.833 -95.834,-95.833c-52.841,0 -95.833,42.992 -95.833,95.833c-0,52.842 42.992,95.834 95.833,95.834c19.838,-0 38.742,-5.984 54.904,-17.342l56.921,59.2c2.38,2.471 5.58,3.833 9.009,3.833c3.246,0 6.325,-1.237 8.662,-3.487c4.967,-4.779 5.125,-12.704 0.346,-17.675Zm-129.842,-191.196c39.059,0 70.834,31.775 70.834,70.833c-0,39.059 -31.775,70.834 -70.834,70.834c-39.058,-0 -70.833,-31.775 -70.833,-70.834c0,-39.058 31.775,-70.833 70.833,-70.833Z" style="fill:#d3d013;fill-rule:nonzero;"/></svg>