<?xml version="1.0" encoding="UTF-8" standalone="no"?>
<svg
   xmlns:dc="http://purl.org/dc/elements/1.1/"
   xmlns:cc="http://creativecommons.org/ns#"
   xmlns:rdf="http://www.w3.org/1999/02/22-rdf-syntax-ns#"
   xmlns:svg="http://www.w3.org/2000/svg"
   xmlns="http://www.w3.org/2000/svg"
   xmlns:sodipodi="http://sodipodi.sourceforge.net/DTD/sodipodi-0.dtd"
   xmlns:inkscape="http://www.inkscape.org/namespaces/inkscape"
   inkscape:version="1.0 (4035a4fb49, 2020-05-01)"
   height="40.581902"
   width="121.5812"
   sodipodi:docname="logo.svg"
   xml:space="preserve"
   viewBox="0 0 121.5812 40.581902"
   id="Calque_1"
   version="1.1"><metadata
     id="metadata63"><rdf:RDF><cc:Work
         rdf:about=""><dc:format>image/svg+xml</dc:format><dc:type
           rdf:resource="http://purl.org/dc/dcmitype/StillImage" /></cc:Work></rdf:RDF></metadata><defs
     id="defs61" /><sodipodi:namedview
     inkscape:current-layer="Calque_1"
     inkscape:window-maximized="1"
     inkscape:window-y="-9"
     inkscape:window-x="-9"
     inkscape:cy="18.7224"
     inkscape:cx="61.041853"
     inkscape:zoom="10.045779"
     showgrid="false"
     id="namedview59"
     inkscape:window-height="1261"
     inkscape:window-width="2400"
     inkscape:pageshadow="2"
     inkscape:pageopacity="0"
     guidetolerance="10"
     gridtolerance="10"
     objecttolerance="10"
     borderopacity="1"
     bordercolor="#666666"
     pagecolor="#ffffff" /><path
     id="path2"
     d="m 48.9894,15.2757 c 0,-1.204 0.212,-2.4038 0.6354,-3.5994 0.4234,-1.1944 1.0395,-2.2625 1.8487,-3.2037 0.8089,-0.9406 1.8066,-1.7074 2.992,-2.3004 1.1857,-0.5924 2.5307,-0.8889 4.0363,-0.8889 1.7877,0 3.3168,0.4047 4.5869,1.2136 1.2702,0.8095 2.2063,1.8632 2.8086,3.1616 l -1.5525,0.9592 C 64.0246,9.9592 63.6342,9.4041 63.1736,8.9524 62.7123,8.5007 62.2183,8.1339 61.6917,7.8518 61.1646,7.5691 60.6191,7.3677 60.0544,7.245 59.49,7.1229 58.9346,7.0616 58.3891,7.0616 c -1.2046,0 -2.2679,0.2448 -3.1896,0.7337 -0.9223,0.4895 -1.6987,1.1288 -2.3289,1.9191 -0.6306,0.7908 -1.1057,1.6797 -1.4253,2.6678 -0.3202,0.9875 -0.4799,1.9901 -0.4799,3.0058 0,1.1108 0.1927,2.1735 0.5789,3.1899 0.3855,1.0164 0.9123,1.9149 1.5805,2.6955 0.6679,0.7812 1.4581,1.4019 2.371,1.8632 0.9126,0.4613 1.9053,0.6916 2.9779,0.6916 0.5647,0 1.1433,-0.071 1.736,-0.2117 0.593,-0.1413 1.1667,-0.3669 1.7218,-0.6778 0.5551,-0.3103 1.0678,-0.6958 1.5384,-1.1571 0.4703,-0.4607 0.8654,-1.0206 1.1857,-1.6797 l 1.637,0.8468 c -0.3203,0.753 -0.7719,1.4163 -1.3547,1.9901 -0.5837,0.5743 -1.2329,1.0585 -1.9477,1.4536 -0.7154,0.3957 -1.4728,0.6964 -2.2724,0.9033 -0.8002,0.2069 -1.5856,0.3109 -2.3569,0.3109 -1.3739,0 -2.6348,-0.3013 -3.7822,-0.9033 -1.1481,-0.602 -2.1362,-1.3874 -2.964,-2.3569 -0.8281,-0.9695 -1.4725,-2.07 -1.9335,-3.3029 -0.4615,-1.2322 -0.6918,-2.488 -0.6918,-3.7678 z"
     fill="#344767" /><path
     id="path4"
     d="m 80.9138,19.1996 2.5969,6.266 h 2.0887 L 77.2726,5.4244 h -1.6653 l -8.3836,20.0412 h 2.1172 l 2.5686,-6.266 4.5163,-11.4604 4.488,11.4604"
     fill="#762181" /><path
     id="path6"
     d="M 88.4783,25.4657 V 5.4244 h 6.8028 c 1.5991,0 2.9965,0.264 4.1915,0.7908 1.195,0.5268 2.1921,1.2419 2.992,2.1452 0.7999,0.9033 1.4019,1.9618 1.8066,3.1754 0.4044,1.2136 0.6068,2.5079 0.6068,3.8809 0,1.5246 -0.2258,2.903 -0.6775,4.1353 -0.4517,1.2329 -1.0964,2.2865 -1.9335,3.1616 -0.8375,0.875 -1.8442,1.5522 -3.0203,2.0322 -1.176,0.4799 -2.4979,0.7199 -3.9657,0.7199 z m 14.4238,-10.0489 c 0,-1.204 -0.1693,-2.3094 -0.5079,-3.3162 -0.3389,-1.0068 -0.8326,-1.8776 -1.4819,-2.6113 C 100.2631,8.7556 99.4677,8.1867 98.5271,7.7819 97.5859,7.3772 96.504,7.1745 95.281,7.1745 h -4.8269 v 16.5411 h 4.8269 c 1.2419,0 2.338,-0.2117 3.2885,-0.6351 0.9499,-0.4234 1.745,-1.0062 2.3849,-1.7501 0.6396,-0.7433 1.1243,-1.6184 1.4539,-2.6251 0.329,-1.0062 0.4938,-2.1026 0.4938,-3.2885 z"
     fill="#344767" /><g
     transform="translate(-9.6346,-9.0717)"
     id="g16"><g
       id="g14"><rect
         id="rect8"
         height="1.6653"
         width="13.4643"
         y="23.7265"
         x="117.7515"
         fill="#344767" /><rect
         id="rect10"
         height="1.7501"
         width="13.4643"
         y="32.7873"
         x="117.7091"
         fill="#344767" /><rect
         id="rect12"
         height="1.7501"
         width="13.4643"
         y="14.4961"
         x="117.7515"
         fill="#344767" /></g></g><path
     id="path18"
     d="m 41.82,17.7316 c 0.6775,-0.1317 1.2888,-0.3813 1.8349,-0.7481 0.5455,-0.3669 1.0113,-0.8185 1.3971,-1.355 0.3855,-0.5359 0.6868,-1.1379 0.9033,-1.806 0.2162,-0.6682 0.3248,-1.3694 0.3248,-2.1031 0,-0.7716 -0.1461,-1.5336 -0.4375,-2.2865 C 45.5506,8.6805 45.1414,8.0076 44.6145,7.4146 44.0877,6.8222 43.4616,6.3423 42.7375,5.9754 42.0128,5.6085 41.2177,5.4245 40.3523,5.4245 h -8.4681 v 1.7501 h 8.3553 c 0.5455,0 1.0675,0.1227 1.5664,0.3675 0.4986,0.2448 0.9316,0.5737 1.2984,0.9875 0.3672,0.4144 0.6585,0.8991 0.875,1.4536 0.2162,0.5557 0.3248,1.1343 0.3248,1.7363 0,0.6026 -0.0944,1.1763 -0.2824,1.7218 -0.1882,0.5461 -0.4517,1.035 -0.7902,1.4674 -0.3389,0.4336 -0.7481,0.7764 -1.2281,1.0308 -0.4796,0.2538 -1.0116,0.3807 -1.5946,0.3807 h -8.5246 v 9.1456 h 1.9759 v -7.3955 h 5.9278 l 4.7138,7.3955 h 2.2297 z"
     fill="#344767" /><g
     transform="translate(-9.6346,-9.0717)"
     id="g38"><polyline
       id="polyline20"
       points="9.6346,34.6784 12.3389,30.2855 14.9814,34.6784 9.6346,34.6784  "
       fill="#934895" /><polygon
       id="polygon22"
       points="14.9921,34.6784 12.3496,30.2855 17.6965,30.2855 "
       fill="#904392" /><polygon
       id="polygon24"
       points="17.7139,30.2855 20.3564,34.6784 15.0096,34.6784 "
       fill="#86388c" /><polygon
       id="polygon26"
       points="20.3671,34.6784 17.7246,30.2855 23.0715,30.2855 "
       fill="#762181" /><polygon
       id="polygon28"
       points="23.079,30.2855 25.7215,34.6784 20.3747,34.6784 "
       fill="#50267e" /><polygon
       id="polygon30"
       points="25.7322,34.6784 23.0897,30.2855 28.4366,30.2855 "
       fill="#292f6d" /><polygon
       id="polygon32"
       points="28.4527,30.2855 31.0952,34.6784 25.7483,34.6784 "
       fill="#21244c" /><polygon
       id="polygon34"
       points="26.8925,14.1587 24.0784,9.0717 13.0119,28.6991 18.7109,28.6991 23.874,19.5419 "
       fill="#86388c" /><polygon
       id="polygon36"
       points="32.5693,34.6642 38.2359,34.6642 27.7992,15.7977 24.9526,20.8741 30.1589,30.2855 30.1525,30.2855 "
       fill="#50267e" /></g><g
     transform="translate(-9.6346,-9.0717)"
     id="g56"><g
       id="g54"><path
         id="path40"
         d="m 94.567,49.4504 v -9.6245 h 3.9849 c 0.4155,0 0.7973,0.0866 1.1455,0.2576 0.3477,0.1721 0.6481,0.4053 0.9011,0.6985 0.253,0.2933 0.4521,0.6191 0.5967,0.9755 0.1441,0.3574 0.2169,0.7209 0.2169,1.0916 0,0.5244 -0.1156,1.0193 -0.3457,1.4846 -0.2306,0.4653 -0.5539,0.8421 -0.9694,1.1313 -0.4155,0.2892 -0.9037,0.4338 -1.4637,0.4338 h -3.1179 v 3.5516 z m 0.9485,-4.3917 h 3.0771 c 0.3793,0 0.7092,-0.1039 0.9892,-0.3116 0.28,-0.2077 0.4969,-0.4796 0.6507,-0.8136 0.1538,-0.334 0.2306,-0.6955 0.2306,-1.0844 0,-0.3971 -0.0906,-0.7637 -0.2714,-1.0977 -0.1808,-0.334 -0.418,-0.5987 -0.7113,-0.7932 C 99.1866,40.7637 98.8633,40.667 98.511,40.667 h -2.9957 v 4.3917 z"
         fill="#904392" /><path
         id="path42"
         d="m 105.1072,49.6261 c -0.5152,0 -0.9872,-0.0967 -1.4164,-0.2892 -0.4292,-0.1935 -0.7998,-0.4592 -1.1114,-0.7953 -0.3121,-0.337 -0.5539,-0.724 -0.7255,-1.1598 -0.1716,-0.4358 -0.2576,-0.8961 -0.2576,-1.3818 0,-0.503 0.086,-0.9724 0.2576,-1.4082 0.1716,-0.4358 0.4154,-0.8227 0.7321,-1.1598 0.3162,-0.337 0.6889,-0.6018 1.118,-0.7952 0.4292,-0.1924 0.8971,-0.2892 1.4031,-0.2892 0.5061,0 0.9714,0.0967 1.396,0.2892 0.4246,0.1935 0.7953,0.4582 1.1114,0.7952 0.3161,0.337 0.5605,0.724 0.7321,1.1598 0.1716,0.4358 0.2576,0.9052 0.2576,1.4082 0,0.4857 -0.086,0.946 -0.2576,1.3818 -0.1716,0.4358 -0.4134,0.8227 -0.725,1.1598 -0.3121,0.336 -0.6827,0.6018 -1.1114,0.7953 -0.4295,0.1924 -0.8969,0.2892 -1.403,0.2892 z m -2.5756,-3.6128 c 0,0.5213 0.1156,0.9938 0.3457,1.4205 0.2306,0.4256 0.5402,0.7627 0.9286,1.0091 0.3885,0.2464 0.8176,0.3696 1.2876,0.3696 0.4699,0 0.8991,-0.1252 1.2881,-0.3768 0.3885,-0.2505 0.7001,-0.5936 0.9353,-1.0294 0.2347,-0.4348 0.3523,-0.9123 0.3523,-1.4327 0,-0.5122 -0.1176,-0.9826 -0.3523,-1.4133 -0.2352,-0.4307 -0.5468,-0.7718 -0.9353,-1.0233 -0.389,-0.2505 -0.8182,-0.3768 -1.2881,-0.3768 -0.4699,0 -0.8991,0.1303 -1.2876,0.391 -0.3885,0.2597 -0.698,0.6028 -0.9286,1.0294 -0.2302,0.4257 -0.3457,0.9032 -0.3457,1.4327 z"
         fill="#904392" /><path
         id="path44"
         d="m 113.4764,43.2691 c -0.6145,0.0183 -1.1547,0.1904 -1.62,0.5152 -0.4653,0.3258 -0.7927,0.7729 -0.9826,1.3421 v 4.3917 h -0.9215 V 42.483 h 0.8675 v 1.6669 c 0.2439,-0.4969 0.5667,-0.8991 0.9689,-1.2056 0.4022,-0.3075 0.8294,-0.4796 1.281,-0.5152 0.0906,-0.0092 0.1695,-0.0132 0.2373,-0.0132 0.0677,0 0.1242,0.0041 0.1695,0.0132 v 0.84 z"
         fill="#904392" /><path
         id="path46"
         d="m 118.4026,49.233 c -0.0723,0.0275 -0.1853,0.0774 -0.3391,0.1497 -0.1538,0.0723 -0.3386,0.1354 -0.5555,0.1894 -0.2169,0.054 -0.4521,0.0815 -0.7051,0.0815 -0.2622,0 -0.5081,-0.0499 -0.7387,-0.1497 -0.2301,-0.0998 -0.4134,-0.2515 -0.5488,-0.4562 -0.1354,-0.2036 -0.2031,-0.4562 -0.2031,-0.7555 v -5.077 h -0.976 V 42.483 h 0.976 v -2.3858 h 0.9215 v 2.3858 h 1.6267 v 0.7321 h -1.6267 v 4.8214 c 0.0178,0.2546 0.1105,0.445 0.278,0.5723 0.167,0.1273 0.3589,0.1904 0.5758,0.1904 0.253,0 0.4837,-0.0428 0.6914,-0.1283 0.2077,-0.0855 0.3345,-0.1466 0.3798,-0.1833 z"
         fill="#904392" /><path
         id="path48"
         d="m 119.2996,47.4989 c 0,-0.4409 0.1263,-0.8197 0.3793,-1.1384 0.253,-0.3187 0.6033,-0.5661 1.0503,-0.7413 0.4475,-0.1751 0.9648,-0.2627 1.5523,-0.2627 0.3431,0 0.7,0.0275 1.0707,0.0815 0.3706,0.054 0.7,0.1354 0.9897,0.2444 v -0.5947 c 0,-0.5926 -0.1762,-1.0651 -0.529,-1.4154 -0.3523,-0.3503 -0.8401,-0.5254 -1.4637,-0.5254 -0.3793,0 -0.7525,0.0703 -1.118,0.2108 -0.3661,0.1395 -0.7479,0.3452 -1.1455,0.616 l -0.3523,-0.6507 c 0.4608,-0.3157 0.9123,-0.5529 1.3553,-0.7107 0.4424,-0.1588 0.8945,-0.2373 1.3553,-0.2373 0.8675,0 1.5544,0.2464 2.0604,0.7403 0.5061,0.4939 0.7591,1.1771 0.7591,2.0477 v 3.2462 c 0,0.1252 0.027,0.2179 0.0815,0.2759 0.054,0.058 0.14,0.0916 0.2576,0.1008 v 0.7321 c -0.0998,0.0092 -0.1853,0.0183 -0.2576,0.0275 -0.0723,0.0081 -0.1268,0.0081 -0.1629,0 -0.2255,-0.0092 -0.3976,-0.0815 -0.5147,-0.2169 -0.1176,-0.1354 -0.1812,-0.28 -0.1899,-0.4338 l -0.0137,-0.5152 c -0.3162,0.4063 -0.7275,0.7209 -1.2331,0.9419 -0.5066,0.221 -1.0213,0.3319 -1.5457,0.3319 -0.4516,0 -0.8604,-0.0967 -1.2265,-0.2892 -0.3661,-0.1935 -0.6507,-0.4541 -0.8538,-0.782 -0.2038,-0.3267 -0.3051,-0.6882 -0.3051,-1.0833 z m 4.7302,0.5366 c 0.0993,-0.1252 0.1762,-0.2464 0.2306,-0.3625 0.054,-0.1161 0.0815,-0.2199 0.0815,-0.3095 v -1.0203 c -0.3075,-0.1171 -0.6262,-0.2067 -0.9556,-0.2688 -0.3299,-0.0631 -0.6624,-0.0937 -0.9964,-0.0937 -0.6598,0 -1.1929,0.1293 -1.5997,0.389 -0.4063,0.2597 -0.6099,0.613 -0.6099,1.061 0,0.2597 0.0677,0.504 0.2037,0.7321 0.1354,0.2281 0.334,0.4165 0.5962,0.5641 0.2622,0.1487 0.5692,0.222 0.9215,0.222 0.4429,0 0.8563,-0.0855 1.2402,-0.2556 0.3844,-0.17 0.6802,-0.3889 0.8879,-0.6578 z"
         fill="#904392" /><path
         id="path50"
         d="m 127.2561,40.9781 v -1.3553 h 0.9215 v 1.3553 z m 0,8.54 v -7.0626 h 0.9215 v 7.0626 z"
         fill="#904392" /><path
         id="path52"
         d="m 130.2518,49.5181 v -9.9455 h 0.9215 v 9.9455 z"
         fill="#904392" /></g></g></svg>
