<?xml version="1.0" encoding="UTF-8" standalone="no"?>
<svg
  version="1.1"
  id="Calque_1"
  x="0px"
  y="0px"
  width="636.17505"
  height="153.68401"
  viewBox="0 0 636.17504 153.684"
  enable-background="new 0 0 841.89 595.275"
  xml:space="preserve"
  xmlns="http://www.w3.org/2000/svg">
  <g
    id="g394"
    transform="translate(-97.998,-180.366)">
	<g
    id="g367">
			<g
        id="g237">

					<text
            fill="#d3d000"
            font-family="TitilliumTitle12"
            font-size="142.931px"
            letter-spacing="-7"
            id="text235"
            style="font-size:133.333px;line-height:0.4;letter-spacing:0.25px"
            x="289.46881"
            y="297.73685"><tspan
     style="font-style:normal;font-variant:normal;font-weight:normal;font-stretch:normal;font-size:133.333px;font-family:Calibri;-inkscape-font-specification:Calibri"
     id="tspan1887"
     rotate="0.2 0.2 0.2 0.2 0.2 0.2 0.2 0">Dossier</tspan></text>
			</g>

    <g
      id="g411"
      transform="matrix(4.6812159,0,0,4.6812159,-205.10507,-844.0031)"><g
     transform="matrix(0.35277777,0,0,-0.35277777,97.902468,235.35207)"
     id="g104"><path
       id="path106-2"
       style="fill:#d9cf00;fill-opacity:1;fill-rule:nonzero;stroke:none"
       d="m 0,0 c 0,-25.831 -20.94,-46.772 -46.772,-46.772 -25.831,0 -46.771,20.941 -46.771,46.772 0,25.831 20.94,46.772 46.771,46.772 C -20.94,46.772 0,25.831 0,0" /></g>
      <g
        transform="matrix(0.35277777,0,0,-0.35277777,79.289948,228.72161)"
        id="g108"><path
       id="path110-6"
       style="fill:#ffffff;fill-opacity:1;fill-rule:nonzero;stroke:none"
       d="m 0,0 -12.96,0.221 3.927,-26.252 c 0.045,-0.018 0.09,-0.037 0.096,-0.037 0.016,0 1.597,1.845 3.099,3.346 0.851,0.856 2.413,2.293 3.468,3.164 1.398,1.223 2.853,2.382 4.36,3.475 z" /></g>
      <g
        transform="matrix(0.35277777,0,0,-0.35277777,76.301674,238.27698)"
        id="g112"><path
       id="path114-7"
       style="fill:#ffffff;fill-opacity:1;fill-rule:nonzero;stroke:none"
       d="m 0,0 -0.281,-0.779 0.409,-2.744 0.657,-4.409 0.574,-3.85 11.301,4.987 0.002,0.001 L 10.59,9.958 C 3.231,4.725 0,0 0,0" /></g>
      <g
        transform="matrix(0.35277777,0,0,-0.35277777,75.859678,237.97254)"
        id="g116"><path
       id="path118"
       style="fill:#ffffff;fill-opacity:1;fill-rule:nonzero;stroke:none"
       d="m 0,0 c 0.003,-0.001 0.005,-0.002 0.008,-0.003 v 0 L -1.245,8.293 C -5.896,4.758 -7.958,1.744 -7.958,1.744 l -0.207,-0.58 1.218,-8.176 7.638,2.429 z" /></g>
      <g
        transform="matrix(0.35277777,0,0,-0.35277777,74.530518,235.24161)"
        id="g120"><path
       id="path122-9"
       style="fill:#ffffff;fill-opacity:1;fill-rule:nonzero;stroke:none"
       d="m 0,0 c 0.752,0.658 1.527,1.291 2.322,1.898 l -1.93,12.96 -8.261,-0.161 2.904,-19.503 c 0.038,-0.016 0.08,-0.033 0.085,-0.033 0.011,0 1.187,1.371 2.304,2.488 C -1.945,-1.716 -0.784,-0.648 0,0" /></g>
      <g
        transform="matrix(0.35277777,0,0,-0.35277777,90.595276,232.3578)"
        id="g124"><path
       id="path126-6"
       style="fill:#ffffff;fill-opacity:1;fill-rule:nonzero;stroke:none"
       d="m 0,0 v 0.586 c -5.366,-1.34 -10.101,-3.625 -14.077,-6.135 -8.451,-5.335 -13.468,-11.683 -13.807,-12.12 l 0.688,-5.734 0.014,0.007 0.159,-1.292 1.667,-13.589 0.021,-0.17 26.625,17.727 z" /></g>
      <g
        transform="matrix(0.35277777,0,0,-0.35277777,80.690758,238.03981)"
        id="g128"><path
       id="path130-1"
       style="fill:#ffffff;fill-opacity:1;fill-rule:nonzero;stroke:none"
       d="m 0,0 c 1.309,1.605 5.921,6.843 13.891,11.667 l 0.006,0.003 c 3.747,2.267 8.232,4.442 13.47,6.104 0,0 0.355,0.121 0.482,0.161 l -0.675,11.158 -31.088,2.811 -0.057,0.005 0.66,-5.325 h -10e-4 l 1.99,-16.083 0.001,0.001 0.13,-1.045 c -10e-4,0 -10e-4,-0.001 -0.002,-0.001 z" /></g></g></g>

</g>
</svg>
