<?xml version="1.0" encoding="UTF-8"?>
<svg id="Calque_1" xmlns="http://www.w3.org/2000/svg" viewBox="0 0 146.41 186.69">
  <defs>
    <style>
      .cls-1{fill:#024f4b;}.cls-1,.cls-2,.cls-3,.cls-4,.cls-5,.cls-6,.cls-7,.cls-8,.cls-9{stroke-width:0px;}.cls-2{fill:#021614;}.cls-3{fill:#448279;}.cls-4{fill:#01302c;}.cls-5{fill:#64e2ca;}.cls-7{fill:#448279;}.cls-8{fill:#257062;}.cls-9{fill:#368778;}
    </style>
  </defs>
  <path class="cls-3"
        d="m100.18,169.82c.84-.44,1.79-.67,2.84-.67,1.26,0,2.39.28,3.39.83,1,.55,1.81,1.41,2.43,2.59l1.44-.96c-.3-.61-.67-1.16-1.11-1.67-.44-.51-.95-.94-1.55-1.31-.6-.36-1.28-.65-2.04-.85-.77-.2-1.61-.31-2.54-.31-1.26,0-2.43.26-3.5.79-1.07.53-1.99,1.23-2.78,2.11-.26.29-.5.61-.72.94h2.25c.54-.59,1.15-1.1,1.87-1.48Z"/>
  <path class="cls-3"
        d="m105.02,178.68h4.22v3.15c-.91,1.1-1.85,1.91-2.84,2.41-.99.51-2.02.76-3.11.76-1.01,0-1.95-.21-2.82-.64-.86-.43-1.61-1-2.25-1.72-.64-.72-1.14-1.56-1.51-2.52-.36-.96-.55-1.97-.55-3.04,0-.93.15-1.83.42-2.7h-1.94c-.23.86-.35,1.76-.35,2.68,0,1.21.22,2.39.67,3.54.44,1.15,1.06,2.17,1.85,3.08.79.91,1.73,1.64,2.8,2.19,1.08.55,2.25.83,3.54.83,2.29,0,4.32-.97,6.08-2.91v2.78h1.57v-9.31h-5.79v1.44Z"/>
  <polygon class="cls-3"
           points="116.52 177.67 125.78 177.67 125.78 176.1 116.52 176.1 116.52 169.26 127.14 169.26 127.14 167.61 114.66 167.61 114.66 186.56 127.38 186.56 127.38 184.9 116.52 184.9 116.52 177.67"/>
  <path class="cls-3"
        d="m145.84,173.39c-.38-1.15-.95-2.15-1.71-3-.76-.85-1.7-1.53-2.83-2.03-1.13-.5-2.45-.75-3.96-.75h-6.43v18.95h6.43c1.39,0,2.64-.23,3.75-.68,1.11-.45,2.06-1.09,2.86-1.92.79-.83,1.4-1.82,1.83-2.99.43-1.17.64-2.47.64-3.91,0-1.3-.19-2.52-.57-3.67Zm-1.76,6.78c-.31.95-.77,1.78-1.37,2.48-.61.7-1.36,1.25-2.26,1.65s-1.93.6-3.11.6h-4.56v-15.64h4.56c1.16,0,2.18.19,3.07.57.89.38,1.64.92,2.26,1.61s1.08,1.52,1.4,2.47c.32.95.48,2,.48,3.14s-.16,2.16-.47,3.11Z"/>
  <path class="cls-3"
        d="m96.64,174.13c.32-.95.78-1.8,1.37-2.54.09-.11.2-.19.29-.29h-2.25c-.44.65-.82,1.35-1.11,2.12-.12.31-.22.63-.3.95h1.94c.02-.08.03-.17.06-.25Z"/>
  <path class="cls-6"
        d="m49.23,145.06c0-1.58.28-3.15.83-4.72.56-1.57,1.36-2.97,2.42-4.2,1.06-1.23,2.37-2.24,3.92-3.02,1.55-.78,3.32-1.17,5.29-1.17,2.34,0,4.35.53,6.01,1.59,1.67,1.06,2.89,2.44,3.68,4.14l-2.04,1.26c-.42-.86-.93-1.59-1.54-2.18-.6-.59-1.25-1.07-1.94-1.44-.69-.37-1.41-.63-2.15-.8-.74-.16-1.47-.24-2.18-.24-1.58,0-2.97.32-4.18.96-1.21.64-2.23,1.48-3.05,2.52-.83,1.04-1.45,2.2-1.87,3.5-.42,1.29-.63,2.61-.63,3.94,0,1.46.25,2.85.76,4.18.51,1.33,1.2,2.51,2.07,3.53.88,1.02,1.91,1.84,3.11,2.44,1.2.6,2.5.91,3.9.91.74,0,1.5-.09,2.28-.28.78-.19,1.53-.48,2.26-.89.73-.41,1.4-.91,2.02-1.52.62-.6,1.13-1.34,1.55-2.2l2.15,1.11c-.42.99-1.01,1.86-1.78,2.61-.77.75-1.62,1.39-2.55,1.91-.94.52-1.93.91-2.98,1.18-1.05.27-2.08.41-3.09.41-1.8,0-3.45-.4-4.96-1.18-1.51-.79-2.8-1.82-3.89-3.09-1.09-1.27-1.93-2.71-2.53-4.33-.6-1.62-.91-3.26-.91-4.94Z"/>
  <path class="cls-3" d="m91.08,150.17l3.4,8.21h2.74l-10.92-26.27h-2.18l-10.99,26.27h2.78l3.37-8.21,5.92-15.02,5.88,15.02"/>
  <path class="cls-6" d="m17.95,150.59l3.4,8.21h2.74l-10.92-26.27h-2.18L0,158.81h2.78l3.37-8.21,5.92-15.02,5.88,15.02"/>
  <path class="cls-6"
        d="m101,158.38v-26.27h8.92c2.1,0,3.93.35,5.49,1.04s2.87,1.63,3.92,2.81c1.05,1.18,1.84,2.57,2.37,4.16.53,1.59.8,3.29.8,5.09,0,2-.3,3.81-.89,5.42-.59,1.62-1.44,3-2.53,4.14-1.1,1.15-2.42,2.03-3.96,2.66-1.54.63-3.27.94-5.2.94h-8.92Zm18.91-13.17c0-1.58-.22-3.03-.67-4.35-.44-1.32-1.09-2.46-1.94-3.42-.85-.96-1.89-1.71-3.13-2.24-1.23-.53-2.65-.8-4.26-.8h-6.33v21.68h6.33c1.63,0,3.06-.28,4.31-.83,1.25-.56,2.29-1.32,3.13-2.29.84-.97,1.47-2.12,1.91-3.44.43-1.32.65-2.76.65-4.31Z"/>
  <rect class="cls-6" x="126.75" y="143.87" width="17.65" height="2.18"/>
  <rect class="cls-6" x="126.75" y="154.99" width="17.65" height="2.18"/>
  <rect class="cls-6" x="126.75" y="132.11" width="17.65" height="2.29"/>
  <path class="cls-6"
        d="m39.83,148.67c.89-.17,1.69-.5,2.41-.98.72-.48,1.33-1.07,1.83-1.78.51-.7.9-1.49,1.18-2.37.28-.88.43-1.8.43-2.76,0-1.01-.19-2.01-.57-3-.38-.99-.92-1.87-1.61-2.65-.69-.78-1.51-1.41-2.46-1.89-.95-.48-1.99-.72-3.13-.72h-11.1v2.29h10.95c.72,0,1.4.16,2.05.48.65.32,1.22.75,1.7,1.29.48.54.86,1.18,1.15,1.91.28.73.43,1.49.43,2.28s-.12,1.54-.37,2.26c-.25.72-.59,1.36-1.04,1.92-.44.57-.98,1.02-1.61,1.35-.63.33-1.33.5-2.09.5h-11.18v11.99h2.59v-9.7h7.77l6.18,9.7h2.92l-6.44-10.14Z"/>
  <polygon class="cls-3" points="75.86 0 24.95 90.3 51.17 90.3 74.92 48.17 88.81 23.4 75.86 0"/>
  <polygon class="cls-2" points="92.98 30.94 79.88 54.3 103.83 97.59 103.8 97.59 114.92 117.74 140.99 117.74 92.98 30.94"/>
  <polygon class="cls-5" points="9.41 117.8 21.85 97.59 34.01 117.8 9.41 117.8"/>
  <polygon class="cls-3" points="46.5 97.59 34.06 117.8 21.9 97.59 46.5 97.59"/>
  <polygon class="cls-7" points="34.14 117.8 46.58 97.59 58.74 117.8 34.14 117.8"/>
  <polygon class="cls-9" points="71.23 97.59 58.79 117.8 46.63 97.59 71.23 97.59"/>
  <polygon class="cls-8" points="58.82 117.8 71.26 97.59 83.42 117.8 58.82 117.8"/>
  <polygon class="cls-1" points="95.91 97.59 83.47 117.8 71.31 97.59 95.91 97.59"/>
  <polygon class="cls-4" points="83.54 117.8 95.98 97.59 108.14 117.8 83.54 117.8"/>
</svg>