<?xml version="1.0" encoding="utf-8"?>
<!-- Generator: Adobe Illustrator 13.0.0, SVG Export Plug-In  -->
<!DOCTYPE svg PUBLIC "-//W3C//DTD SVG 1.0//EN" "http://www.w3.org/TR/2001/REC-SVG-20010904/DTD/svg10.dtd" [
	<!ENTITY ns_flows "http://ns.adobe.com/Flows/1.0/">
]>
<svg version="1.0"
	 xmlns="http://www.w3.org/2000/svg" xmlns:xlink="http://www.w3.org/1999/xlink" xmlns:a="http://ns.adobe.com/AdobeSVGViewerExtensions/3.0/"
	 x="0px" y="0px" width="48px" height="48px" viewBox="0 0 48 48" enable-background="new 0 0 48 48" xml:space="preserve">
<defs>
</defs>
<path fill="none" stroke="#FFFFFF" stroke-width="6.3469" stroke-linejoin="round" d="M22.9,7.1L5.1,21.8l0,0
	c-0.3,0.3-0.5,0.8-0.5,1.2c0,0.2,0,0.4,0.1,0.6c0.3,0.6,0.9,1,1.6,1c0,0,1.1,0,2.2,0c0,2.4,0,14.2,0,14.2c0,1.101,0.8,1.9,1.8,1.9
	h27.4c1.1,0,1.899-0.9,1.899-2c0,0,0-11.8,0-14.2c1,0,2,0,2,0c0.801,0,1.399-0.5,1.699-1.2c0.102-0.2,0.102-0.4,0.102-0.6
	c0-0.5-0.2-1-0.7-1.4c0,0-3.601-3-4.5-3.7c0-1.2,0-6.9,0-6.9c0-1.2-0.8-2-2-2h-4.8c-1,0-1.7,0.6-1.9,1.5c-1.9-1.6-4.1-3.5-4.1-3.5
	l0.1,0.1c-0.7-0.7-1.8-0.8-2.7-0.1L22.9,7.1z"/>
<path fill="#DCCD00" d="M22.9,7.1L5.1,21.8l0,0c-0.3,0.3-0.5,0.8-0.5,1.2c0,0.2,0,0.4,0.1,0.6c0.3,0.6,0.9,1,1.6,1c0,0,1.1,0,2.2,0
	c0,2.4,0,14.2,0,14.2c0,1.101,0.8,1.9,1.8,1.9h27.4c1.1,0,1.899-0.9,1.899-2c0,0,0-11.8,0-14.2c1,0,2,0,2,0
	c0.801,0,1.399-0.5,1.699-1.2c0.102-0.2,0.102-0.4,0.102-0.6c0-0.5-0.2-1-0.7-1.4c0,0-3.601-3-4.5-3.7c0-1.2,0-6.9,0-6.9
	c0-1.2-0.8-2-2-2h-4.8c-1,0-1.7,0.6-1.9,1.5c-1.9-1.6-4.1-3.5-4.1-3.5l0.1,0.1c-0.7-0.7-1.8-0.8-2.7-0.1L22.9,7.1z"/>
<path fill="#DCCD00" d="M41.8,22.8l-5.1-4.2v-0.1L31,13.7l0,0l-6.5-5.5C24.2,8,24,8,23.8,8.2L6.2,22.9c-0.1,0.1-0.1,0.3,0.1,0.3h1.6
	H10h28.1h1.2h2.3C41.8,23.2,42,23,41.8,22.8z"/>
<path fill="#FFFFFF" d="M35.8,16.8v-5.1c0-0.2-0.1-0.4-0.3-0.4h-3.2c-0.2,0-0.3,0.1-0.3,0.3v2.2l3.9,2.9L35.8,16.8z"/>
<path fill="#FFFFFF" d="M11.9,24.7V37c0,0.3,0.1,0.4,0.3,0.4h23.6c0.3,0,0.4-0.2,0.4-0.4V24.7H11.9z"/>
<path fill="none" d="M48,48H0V0h48V48z"/>
</svg>
