<svg class="svg-icon" style="width: 1em;height: 1em;vertical-align: middle;fill: currentColor;overflow: hidden;" viewBox="0 0 1024 1024" version="1.1"
     xmlns="http://www.w3.org/2000/svg">
  <path
      d="M133.448205 0h539.004718l285.696 284.593231v666.99159a63.435487 63.435487 0 0 1-63.435487 63.448615H133.448205a63.435487 63.435487 0 0 1-63.448615-63.435487V63.422359A63.448615 63.448615 0 0 1 133.448205 0z"
      fill="#E2574C"/>
  <path d="M957.243077 285.472821H736.098462a63.461744 63.461744 0 0 1-63.435488-63.435488V0.630154l284.566975 284.842667z" fill="#B53629"/>
  <path
      d="M720.187077 480.964923c10.633846 0 15.832615-9.268513 15.832615-18.248205 0-9.281641-5.421949-18.261333-15.832615-18.261333h-60.521026c-11.815385 0-18.418872 9.806769-18.418872 20.611282v148.742564c0 13.259487 7.548718 20.611282 17.762462 20.611282 10.148103 0 17.723077-7.351795 17.723077-20.611282v-40.828718h36.614564c11.355897 0 17.027282-9.294769 17.027282-18.510769 0-9.058462-5.671385-18.025026-17.027282-18.025026h-36.614564v-55.479795h43.454359z m-204.550564-36.509538h-44.281436c-12.025436 0-20.558769 8.244513-20.558769 20.48v149.005128c0 15.189333 12.274872 19.954872 21.057641 19.954872h46.473846c55.007179 0 91.319795-36.194462 91.319795-92.054975-0.026256-59.076923-34.225231-97.385026-94.011077-97.385025z m2.126769 152.707282h-26.99159v-115.974564h24.326564c36.824615 0 52.841026 24.707282 52.841026 58.814359 0 31.901538-15.740718 57.147077-50.176 57.147076zM355.538051 444.455385h-43.861333c-12.406154 0-19.31159 8.178872-19.31159 20.611282v148.742564c0 13.259487 7.929436 20.611282 18.57641 20.611282 10.660103 0 18.589538-7.351795 18.589539-20.611282v-43.428103h27.50359c33.93641 0 61.938872-24.050872 61.938871-62.713436 0-37.835487-27.017846-63.212308-63.435487-63.212307z m-0.722051 91.030974h-25.284923v-56.109949h25.284923c15.609436 0 25.534359 12.182974 25.534359 28.081231-0.039385 15.858872-9.924923 28.028718-25.534359 28.028718z"
      fill="#FFFFFF"/>
</svg>