<?xml version="1.0" encoding="UTF-8" standalone="no"?><!DOCTYPE svg PUBLIC "-//W3C//DTD SVG 1.1//EN" "http://www.w3.org/Graphics/SVG/1.1/DTD/svg11.dtd"><svg width="100%" height="100%" viewBox="0 0 323 323" version="1.1" xmlns="http://www.w3.org/2000/svg" xmlns:xlink="http://www.w3.org/1999/xlink" xml:space="preserve" xmlns:serif="http://www.serif.com/" style="fill-rule:evenodd;clip-rule:evenodd;stroke-linejoin:round;stroke-miterlimit:2;"><g><path d="M161.168,0c-88.873,0 -161.168,72.295 -161.168,161.168c0,88.874 72.295,161.169 161.168,161.169c88.874,-0 161.169,-72.308 161.169,-161.169c-0,-88.861 -72.295,-161.168 -161.169,-161.168Zm0,297.369c-75.091,-0 -136.2,-61.097 -136.2,-136.201c-0,-75.104 61.109,-136.2 136.2,-136.2c75.091,-0 136.201,61.096 136.201,136.2c-0,75.104 -61.097,136.201 -136.201,136.201Z" style="fill:#d3d013;fill-rule:nonzero;"/></g><g><path d="M223.588,147.561l-49.935,-0l-0,-49.936c-0,-6.891 -5.581,-12.484 -12.485,-12.484c-6.904,-0 -12.484,5.593 -12.484,12.484l0,49.936l-49.936,-0c-6.903,-0 -12.484,5.593 -12.484,12.484c0,6.891 5.581,12.484 12.484,12.484l49.936,0l0,49.936c0,6.891 5.58,12.484 12.484,12.484c6.904,0 12.485,-5.593 12.485,-12.484l-0,-49.936l49.935,0c6.904,0 12.484,-5.593 12.484,-12.484c0,-6.891 -5.58,-12.484 -12.484,-12.484Z" style="fill:#d3d013;fill-rule:nonzero;"/></g></svg>