<?xml version="1.0" encoding="UTF-8" standalone="no"?>
<!DOCTYPE svg PUBLIC "-//W3C//DTD SVG 1.1//EN" "http://www.w3.org/Graphics/SVG/1.1/DTD/svg11.dtd">
<svg width="100%" height="100%" viewBox="0 0 105 110" version="1.1" xmlns="http://www.w3.org/2000/svg" xmlns:xlink="http://www.w3.org/1999/xlink" xml:space="preserve" xmlns:serif="http://www.serif.com/" style="fill-rule:evenodd;clip-rule:evenodd;stroke-linejoin:round;stroke-miterlimit:2;">
    <g transform="matrix(1,0,0,1,-186.526,-262.545)">
        <path id="Refresh.svg" d="M212.395,290.073C197.803,304.665 197.803,328.316 212.395,342.908C216.48,347.017 221.267,349.936 226.356,351.733C230.232,353.111 232.286,357.383 230.909,361.259C229.531,365.135 225.282,367.189 221.383,365.812C214.239,363.29 207.538,359.158 201.842,353.461C181.436,333.055 181.436,299.949 201.842,279.52L201.503,279.835L186.526,267.94C186.526,267.94 228.201,261.706 229.135,262.64C230.068,263.551 223.881,305.296 223.881,305.296L212.395,290.073ZM265.259,344.984C279.851,330.392 279.851,306.741 265.259,292.149C261.173,288.04 256.387,285.122 251.297,283.324C247.421,281.946 245.367,277.674 246.744,273.798C248.122,269.922 252.371,267.868 256.27,269.245C263.414,271.767 270.115,275.899 275.812,281.596C296.217,302.002 296.217,335.108 275.812,355.537L276.15,355.222L291.127,367.117C291.127,367.117 249.453,373.351 248.519,372.417C247.585,371.506 253.772,329.762 253.772,329.762L265.259,344.984Z" style="fill:rgb(211,208,19);"/>
    </g>
</svg>
