<svg width="80" height="80" viewBox="0 0 80 80" fill="none" xmlns="http://www.w3.org/2000/svg">
  <path
      d="M39.5148 19.5152C44.9478 17.2648 51.0523 17.2648 56.4853 19.5152C61.9184 21.7656 66.2349 26.0822 68.4853 31.5152C70.7358 36.9482 70.7358 43.0527 68.4853 48.4858C66.2349 53.9188 61.9184 58.2353 56.4853 60.4858C51.0523 62.7362 44.9478 62.7362 39.5148 60.4858C34.0817 58.2353 29.7652 53.9188 27.5148 48.4858C25.2643 43.0527 25.2643 36.9482 27.5148 31.5152C29.7652 26.0822 34.0817 21.7656 39.5148 19.5152Z"
      fill="#F2F2F2" stroke="#6FCF97" stroke-width="4" stroke-linecap="round" stroke-linejoin="round"/>
  <path
      d="M56.2738 32.4804C56.945 31.6032 56.7779 30.3479 55.9007 29.6767C55.0234 29.0055 53.7681 29.1726 53.0969 30.0498L56.2738 32.4804ZM48.2361 36.4031C47.5649 37.2804 47.7319 38.5356 48.6092 39.2068C49.4865 39.878 50.7417 39.711 51.4129 38.8337L48.2361 36.4031ZM60.9188 49.6481C61.8789 50.1942 63.0999 49.8587 63.6461 48.8986C64.1923 47.9385 63.8568 46.7175 62.8967 46.1713L60.9188 49.6481ZM51.5988 39.7441C50.6387 39.1979 49.4177 39.5335 48.8715 40.4936C48.3253 41.4536 48.6608 42.6747 49.6209 43.2209L51.5988 39.7441ZM47.0008 40.0006C47.0008 39.4484 47.4485 39.0006 48.0008 39.0006V35.0006C45.2394 35.0006 43.0008 37.2392 43.0008 40.0006H47.0008ZM48.0008 41.0006C47.4485 41.0006 47.0008 40.5529 47.0008 40.0006H43.0008C43.0008 42.7621 45.2394 45.0006 48.0008 45.0006V41.0006ZM49.0008 40.0006C49.0008 40.5529 48.5531 41.0006 48.0008 41.0006V45.0006C50.7622 45.0006 53.0008 42.7621 53.0008 40.0006H49.0008ZM48.0008 39.0006C48.5531 39.0006 49.0008 39.4484 49.0008 40.0006H53.0008C53.0008 37.2392 50.7622 35.0006 48.0008 35.0006V39.0006ZM53.0969 30.0498L48.2361 36.4031L51.4129 38.8337L56.2738 32.4804L53.0969 30.0498ZM62.8967 46.1713L51.5988 39.7441L49.6209 43.2209L60.9188 49.6481L62.8967 46.1713Z"
      fill="#a4ffdb"/>
  <path d="M23 56H13" stroke="#a4ffdb" stroke-width="4" stroke-linecap="round" stroke-linejoin="round"/>
  <path d="M20 48H10" stroke="#a4ffdb" stroke-width="4" stroke-linecap="round" stroke-linejoin="round"/>
  <path d="M18 40H8" stroke="#a4ffdb" stroke-width="4" stroke-linecap="round" stroke-linejoin="round"/>
</svg>