<svg width="80" height="80" viewBox="0 0 80 80" fill="none" xmlns="http://www.w3.org/2000/svg">
  <path d="M16 30L16 29.5L16 16C16 13.7909 17.7909 12 20 12L60 12C62.2091 12 64 13.7909 64 16L64 29.5L64 30" stroke="#a4ffdb" stroke-width="4" stroke-linecap="round" stroke-linejoin="round" />
  <path fill-rule="evenodd" clip-rule="evenodd" d="M48 43.9997L56.4013 43.9997C59.5401 43.9997 61.0824 40.1785 58.8229 37.9997L43.8005 23.5138C41.7668 21.5527 38.5458 21.5527 36.5121 23.5138L21.4896 37.9997C19.2302 40.1784 20.7725 43.9997 23.9112 43.9997L32 43.9997L32 55.9997L32 61.9997C32 63.1043 32.8955 63.9997 34 63.9997L46 63.9997C47.1046 63.9997 48 63.1043 48 61.9997L48 55.9997L48 43.9997Z" fill="#a4ffdb" />
  <path d="M48 43.9997V42.9997C47.4477 42.9997 47 43.4474 47 43.9997L48 43.9997ZM58.8229 37.9997L59.5171 37.2799L58.8229 37.9997ZM43.8005 23.5138L44.4946 22.7939V22.7939L43.8005 23.5138ZM36.5121 23.5138L35.8179 22.7939V22.7939L36.5121 23.5138ZM21.4896 37.9997L20.7955 37.2799H20.7955L21.4896 37.9997ZM32 43.9997L33 43.9997C33 43.4474 32.5523 42.9997 32 42.9997V43.9997ZM32 55.9997H33H32ZM56.4013 42.9997L48 42.9997V44.9997L56.4013 44.9997V42.9997ZM58.1288 38.7196C59.7406 40.2738 58.6404 42.9997 56.4013 42.9997V44.9997C60.4398 44.9997 62.4241 40.0831 59.5171 37.2799L58.1288 38.7196ZM43.1064 24.2336L58.1288 38.7196L59.5171 37.2799L44.4946 22.7939L43.1064 24.2336ZM37.2062 24.2336C38.8525 22.6461 41.46 22.6461 43.1064 24.2336L44.4946 22.7939C42.0735 20.4593 38.239 20.4593 35.8179 22.7939L37.2062 24.2336ZM22.1837 38.7196L37.2062 24.2336L35.8179 22.7939L20.7955 37.2799L22.1837 38.7196ZM23.9112 42.9997C21.6722 42.9997 20.572 40.2738 22.1837 38.7196L20.7955 37.2799C17.8884 40.0831 19.8728 44.9997 23.9112 44.9997L23.9112 42.9997ZM32 42.9997L23.9112 42.9997L23.9112 44.9997L32 44.9997V42.9997ZM33 55.9997L33 43.9997L31 43.9997L31 55.9997H33ZM33 61.9997L33 55.9997H31L31 61.9997H33ZM34 62.9997C33.4477 62.9997 33 62.552 33 61.9997H31C31 63.6566 32.3432 64.9997 34 64.9997V62.9997ZM46 62.9997L34 62.9997V64.9997L46 64.9997L46 62.9997ZM47 61.9997C47 62.552 46.5523 62.9997 46 62.9997L46 64.9997C47.6569 64.9997 49 63.6566 49 61.9997L47 61.9997ZM47 55.9997L47 61.9997L49 61.9997L49 55.9997L47 55.9997ZM47 43.9997L47 55.9997L49 55.9997L49 43.9997L47 43.9997Z" fill="#a4ffdb" />
  <path d="M56.4013 44L23.9112 44C20.7724 44 19.2301 40.1787 21.4896 38L36.512 23.5141C38.5457 21.553 41.7667 21.553 43.8004 23.5141L58.8229 38C61.0823 40.1787 59.54 44 56.4013 44Z" fill="#6FCF97" stroke="#6FCF97" stroke-width="2" stroke-linecap="round" stroke-linejoin="round" />
</svg>