<?xml version="1.0" encoding="UTF-8" standalone="no"?><!DOCTYPE svg PUBLIC "-//W3C//DTD SVG 1.1//EN" "http://www.w3.org/Graphics/SVG/1.1/DTD/svg11.dtd"><svg width="100%" height="100%" viewBox="0 0 305 305" version="1.1" xmlns="http://www.w3.org/2000/svg" xmlns:xlink="http://www.w3.org/1999/xlink" xml:space="preserve" xmlns:serif="http://www.serif.com/" style="fill-rule:evenodd;clip-rule:evenodd;stroke-linejoin:round;stroke-miterlimit:2;"><clipPath id="_clip1"><rect id="header_logout.svg" x="0" y="0" width="304.833" height="304.833"/></clipPath><g clip-path="url(#_clip1)"><path id="XMLID_16_" d="M225.01,19.26c-7.926,-4.292 -17.84,-1.367 -22.145,6.535c-4.306,7.901 -1.371,17.786 6.554,22.079c38.666,20.942 62.686,61.174 62.686,104.997c-0,65.837 -53.723,119.399 -119.756,119.399c-66.034,-0 -119.757,-53.562 -119.757,-119.399c0,-43.632 23.866,-83.781 62.282,-104.779c7.91,-4.322 10.806,-14.219 6.47,-22.104c-4.336,-7.884 -14.262,-10.773 -22.17,-6.45c-48.878,26.716 -79.242,77.806 -79.242,133.333c-0,83.792 68.374,151.962 152.417,151.962c84.042,0 152.417,-68.17 152.417,-151.962c-0,-55.77 -30.561,-106.967 -79.756,-133.611Z" style="fill:#d3d013;fill-rule:nonzero;"/><path id="XMLID_17_" d="M152.349,129.498c9.018,-0 16.33,-6.604 16.33,-14.75l0,-98.334c0,-8.145 -7.312,-14.75 -16.33,-14.75c-9.019,0 -16.331,6.605 -16.331,14.75l0,98.334c0,8.146 7.312,14.75 16.331,14.75Z" style="fill:#d3d013;fill-rule:nonzero;"/></g></svg>