<?xml version="1.0" encoding="utf-8"?>
<!-- Generator: Adobe Illustrator 16.0.0, SVG Export Plug-In . SVG Version: 6.00 Build 0)  -->
<!DOCTYPE svg PUBLIC "-//W3C//DTD SVG 1.1//EN" "http://www.w3.org/Graphics/SVG/1.1/DTD/svg11.dtd">
<svg version="1.1"
	 id="svg2" xmlns:rdf="http://www.w3.org/1999/02/22-rdf-syntax-ns#" xmlns:dc="http://purl.org/dc/elements/1.1/" xmlns:svg="http://www.w3.org/2000/svg" xmlns:cc="http://creativecommons.org/ns#"
	 xmlns="http://www.w3.org/2000/svg" xmlns:xlink="http://www.w3.org/1999/xlink" x="0px" y="0px" width="420px" height="391px"
	 viewBox="11.051 64.586 420 391" enable-background="new 11.051 64.586 420 391" xml:space="preserve">
<g id="g10" transform="matrix(1.3333333,0,0,-1.3333333,0,564.172)">
	<g id="g12" transform="translate(153.0669,330.6147)">
		<path id="path14" fill="#763AA0" d="M0,0v26.938h-113.916v-87.039h25.223V0H0z"/>
	</g>
	<g id="g16" transform="translate(265.3872,270.5137)">
		<path id="path18" fill="#4BACE5" d="M0,0h25.217v87.04h-113.91V60.101H0V0z"/>
	</g>
	<g id="g20" transform="translate(64.3735,193.1426)">
		<path id="path22" fill="#C0D41F" d="M0,0h-25.222v-87.049H88.693v26.94H0V0z"/>
	</g>
	<g id="g24" transform="translate(176.6938,133.0332)">
		<path id="path26" fill="#E0581D" d="M0,0v-26.938h113.91v87.048H88.693V0H0z"/>
	</g>
	<g id="g28">
		<g>
			<defs>
				<polyline id="SVGID_1_" points="887.327,0 0,0 0,423.129 887.327,423.129 				"/>
			</defs>
			<clipPath id="SVGID_2_">
				<use xlink:href="#SVGID_1_"  overflow="visible"/>
			</clipPath>
			<g id="g30" clip-path="url(#SVGID_2_)">
				<g id="g36" transform="translate(13.271,314.3164)">
					<path id="path38" fill="#393536" d="M0,0c83.499-10.355,192.77-44.803,205.104-64.662c1.083-1.715,1.367-3.301,0.887-4.695
						c-7.684-22.111-129.34-53.542-130.561-53.866l-0.786-0.201l56.333-39.538c0,0,151.684,44.252,153.597,79.703
						c0.329,5.972-2.777,11.51-10.411,16.539C182.458-6.111,1.874,0.689,0.059,0.748L0,0z"/>
				</g>
				<g id="g40" transform="translate(50.7251,181.6357)">
					<path id="path42" fill="#393536" d="M0,0l59.046-42.003l28.025,9.67L30.57,7.257L0,0z"/>
				</g>
			</g>
		</g>
	</g>
</g>
</svg>
