<?xml version="1.0" encoding="UTF-8"?>
<svg id="Calque_1" xmlns="http://www.w3.org/2000/svg" viewBox="0 0 148.49 28.12">
  <defs>
    <style>
      .cls-1{fill:#8B8A0C;}.cls-2{fill:#414005;}.cls-3{fill:#d3d013;}.cls-4{fill:#6D6C08;}.cls-5{fill:#e6d86f;}.cls-7{fill:#bcba12;}.cls-8{fill:#A5A40F;}.cls-9{fill:#ABA910;}
    </style>
  </defs>
  <polygon class="cls-3" points="14.44 0 3.38 19.62 9.07 19.62 14.23 10.46 17.25 5.08 14.44 0"/>
  <polygon class="cls-2" points="18.15 6.72 15.31 11.8 20.51 21.2 20.51 21.2 22.92 25.58 28.59 25.58 18.15 6.72"/>
  <polygon class="cls-5" points="0 25.59 2.7 21.2 5.34 25.59 0 25.59"/>
  <polygon class="cls-3" points="8.06 21.2 5.35 25.59 2.71 21.2 8.06 21.2"/>
  <polygon class="cls-7" points="5.37 25.59 8.07 21.2 10.72 25.59 5.37 25.59"/>
  <polygon class="cls-9" points="13.43 21.2 10.73 25.59 8.09 21.2 13.43 21.2"/>
  <polygon class="cls-8" points="10.73 25.59 13.44 21.2 16.08 25.59 10.73 25.59"/>
  <polygon class="cls-1" points="18.79 21.2 16.09 25.59 13.45 21.2 18.79 21.2"/>
  <polygon class="cls-4" points="16.1 25.59 18.81 21.2 21.45 25.59 16.1 25.59"/>
  <path class="cls-3" d="m130.22,27.11v-4.42h5.66v-.96h-5.66v-4.18h6.49v-1.01h-7.01c-.35,0-.63.28-.63.63v10.96h7.78v-1.01h-6.64Z"/>
  <path class="cls-3"
        d="m148.14,20.07c-.23-.7-.58-1.31-1.04-1.84-.46-.52-1.04-.94-1.73-1.24-.69-.3-1.5-.46-2.42-.46h-3.3c-.35,0-.64.28-.64.64v10.95h3.93c.85,0,1.61-.14,2.29-.42.68-.28,1.26-.67,1.75-1.17.48-.51.86-1.11,1.12-1.83.26-.71.39-1.51.39-2.39,0-.79-.12-1.54-.35-2.24Zm-1.08,4.14c-.19.58-.47,1.09-.84,1.52-.37.43-.83.77-1.38,1.01s-1.18.37-1.9.37h-2.79v-9.56h2.79c.71,0,1.33.12,1.88.35.54.23,1,.56,1.38.99s.66.93.86,1.51c.2.58.29,1.22.29,1.92s-.1,1.32-.29,1.9Z"/>
  <path class="cls-6"
        d="m48.14,13.42c0-1.2.21-2.4.64-3.6.42-1.19,1.04-2.26,1.85-3.2.81-.94,1.81-1.71,2.99-2.3,1.19-.59,2.53-.89,4.04-.89,1.79,0,3.32.4,4.59,1.21,1.27.81,2.21,1.86,2.81,3.16l-1.55.96c-.32-.66-.71-1.21-1.17-1.67-.46-.45-.96-.82-1.48-1.1-.53-.28-1.07-.48-1.64-.61-.56-.12-1.12-.18-1.67-.18-1.2,0-2.27.24-3.19.73-.92.49-1.7,1.13-2.33,1.92-.63.79-1.11,1.68-1.43,2.67-.32.99-.48,1.99-.48,3.01,0,1.11.19,2.17.58,3.19.39,1.02.91,1.91,1.58,2.7.67.78,1.46,1.4,2.37,1.86.91.46,1.91.69,2.98.69.56,0,1.14-.07,1.74-.21.59-.14,1.17-.37,1.72-.68.56-.31,1.07-.7,1.54-1.16.47-.46.87-1.02,1.19-1.68l1.64.85c-.32.75-.77,1.42-1.35,1.99-.58.57-1.23,1.06-1.95,1.45-.72.4-1.47.7-2.27.9-.8.21-1.59.31-2.36.31-1.37,0-2.63-.3-3.78-.9-1.15-.6-2.14-1.39-2.96-2.36-.83-.97-1.47-2.07-1.93-3.3-.46-1.23-.69-2.49-.69-3.77Z"/>
  <path class="cls-3" d="m80.07,17.34l2.6,6.27h2.09l-8.33-20.04h-1.67l-8.38,20.04h2.12l2.57-6.27,4.52-11.46,4.49,11.46"/>
  <path class="cls-6"
        d="m87.63,23.61V3.57h6.8c1.6,0,3,.26,4.19.79s2.19,1.24,2.99,2.15,1.4,1.96,1.81,3.18c.4,1.21.61,2.51.61,3.88,0,1.52-.23,2.9-.68,4.14-.45,1.23-1.1,2.29-1.93,3.16-.84.88-1.84,1.55-3.02,2.03s-2.5.72-3.97.72h-6.8Zm14.42-10.05c0-1.2-.17-2.31-.51-3.32-.34-1.01-.83-1.88-1.48-2.61s-1.44-1.3-2.39-1.71c-.94-.4-2.02-.61-3.25-.61h-4.83v16.54h4.83c1.24,0,2.34-.21,3.29-.64.95-.42,1.74-1.01,2.38-1.75.64-.74,1.12-1.62,1.45-2.63.33-1.01.49-2.1.49-3.29Z"/>
  <path class="cls-3"
        d="m117.66,20.53s.02-.1.04-.15c.2-.58.48-1.1.84-1.55.05-.07.12-.12.18-.18.33-.36.7-.68,1.15-.91.52-.27,1.1-.41,1.74-.41.77,0,1.46.17,2.07.51.61.34,1.11.87,1.49,1.58l.88-.59c-.19-.37-.41-.71-.68-1.02-.27-.31-.58-.58-.95-.8-.37-.22-.78-.4-1.25-.52-.47-.13-.99-.19-1.55-.19-.77,0-1.49.16-2.14.48-.65.32-1.22.75-1.7,1.29-.16.18-.3.37-.44.57-.27.4-.5.83-.68,1.3-.07.19-.13.39-.19.58-.12.43-.17.88-.19,1.33h1.14c.03-.45.11-.9.24-1.33Z"/>
  <path class="cls-3"
        d="m122.83,22.28v.88h2.58v1.93c-.56.67-1.14,1.17-1.74,1.48-.6.31-1.24.47-1.9.47-.62,0-1.2-.13-1.72-.39-.53-.26-.99-.61-1.38-1.05-.39-.44-.7-.96-.92-1.54-.05-.14-.1-.29-.14-.44h-1.15c.06.24.13.48.22.72.27.7.65,1.33,1.14,1.89.48.56,1.06,1,1.72,1.34.66.34,1.38.51,2.16.51,1.4,0,2.65-.59,3.72-1.78v1.7h.96v-5.7h-3.54Z"/>
  <rect class="cls-6" x="107.27" y="12.8" width="13.46" height="1.67"/>
  <rect class="cls-6" x="107.27" y="3.57" width="13.46" height="1.75"/>
  <path class="cls-6" d="m116.28,21.86h-9.01v1.75h9.18c-.12-.47-.18-.95-.18-1.44,0-.1.02-.21.02-.31Z"/>
  <path class="cls-7" d="m117.41,22.18c0-.11,0-.22.01-.33h-1.14c0,.1-.02.2-.02.31,0,.49.07.97.18,1.44h1.15c-.13-.46-.19-.93-.19-1.42Z"/>
  <path class="cls-6"
        d="m40.97,15.87c.68-.13,1.29-.38,1.83-.75.55-.37,1.01-.82,1.4-1.35.39-.54.69-1.14.9-1.81.22-.67.32-1.37.32-2.1,0-.77-.15-1.53-.44-2.29-.29-.75-.7-1.43-1.23-2.02-.53-.59-1.15-1.07-1.88-1.44-.72-.37-1.52-.55-2.39-.55h-8.47v1.75h8.36c.55,0,1.07.12,1.57.37.5.24.93.57,1.3.99.37.41.66.9.88,1.45.22.56.32,1.13.32,1.74s-.09,1.18-.28,1.72c-.19.55-.45,1.04-.79,1.47-.34.43-.75.78-1.23,1.03-.48.25-1.01.38-1.59.38h-8.52v9.15h1.98v-7.4h5.93l4.71,7.4h2.23l-4.91-7.73Z"/>
</svg>